<svg xmlns="http://www.w3.org/2000/svg" width="512" height="512" viewBox="0 0 512 512" fill="none">
  <defs>
    <linearGradient id="logo-bg" x1="64" y1="48" x2="448" y2="464" gradientUnits="userSpaceOnUse">
      <stop stop-color="#2563eb"/>
      <stop offset="1" stop-color="#7c3aed"/>
    </linearGradient>
    <linearGradient id="logo-doc" x1="160" y1="120" x2="360" y2="400" gradientUnits="userSpaceOnUse">
      <stop stop-color="#ffffff"/>
      <stop offset="1" stop-color="#e0e7ff"/>
    </linearGradient>
  </defs>
  <rect width="512" height="512" rx="112" fill="url(#logo-bg)"/>
  <rect x="144" y="96" width="224" height="320" rx="20" fill="url(#logo-doc)" opacity="0.95"/>
  <rect x="176" y="144" width="120" height="12" rx="6" fill="#7c3aed" opacity="0.7"/>
  <rect x="176" y="176" width="160" height="8" rx="4" fill="#94a3b8" opacity="0.5"/>
  <rect x="176" y="196" width="140" height="8" rx="4" fill="#94a3b8" opacity="0.4"/>
  <rect x="176" y="216" width="150" height="8" rx="4" fill="#94a3b8" opacity="0.35"/>
  <rect x="176" y="256" width="100" height="8" rx="4" fill="#2563eb" opacity="0.6"/>
  <rect x="176" y="276" width="130" height="8" rx="4" fill="#94a3b8" opacity="0.35"/>
  <rect x="176" y="296" width="110" height="8" rx="4" fill="#94a3b8" opacity="0.3"/>
  <circle cx="368" cy="368" r="56" fill="#22c55e"/>
  <path d="M348 368 L362 382 L392 352" stroke="white" stroke-width="10" stroke-linecap="round" stroke-linejoin="round" fill="none"/>
</svg>
